<svg id="Layer_1" data-name="Layer 1" xmlns="http://www.w3.org/2000/svg" viewBox="0 0 160 160"><defs><style>.cls-1,.cls-6{fill:#2196f3}.cls-1,.cls-11{opacity:.1}.cls-2{fill:#fff}.cls-11,.cls-12,.cls-3{fill:#67bcf4}.cls-3{opacity:.6}.cls-10,.cls-4,.cls-7,.cls-8{fill:none;stroke-linecap:round;stroke-linejoin:round;stroke-width:2px}.cls-11,.cls-4,.cls-7{stroke:#196299}.cls-5{fill:#f46767}.cls-7{opacity:.2}.cls-8{stroke:#f46767}.cls-9{fill:#44c1a9}.cls-10{stroke:#2196f3}.cls-11{stroke-miterlimit:10}.cls-12{opacity:.4}.cls-13{fill:#ffcc3b}.cls-14{fill:#196299}</style></defs><title>grab_attention</title><path class="cls-1" d="M21.76 120.71C1.88 98.65-5 82.84 11.24 54.92 27 27.77 56.6 5.53 87.8 6.32s66.68 57.07 70.37 84.11S126 145.33 89.37 144s-52.29-6.31-67.61-23.29z"/><path class="cls-2" d="M108.65 103.63V143a3.8 3.8 0 0 0 7.61 0v-14.76"/><path class="cls-3" d="M108.65 103.63V143a3.8 3.8 0 0 0 7.61 0v-14.76"/><rect class="cls-2" x="76.94" y="26.6" width="68.16" height="86.06" rx="3.7" ry="3.7" transform="rotate(12.15 111.039 69.666)"/><rect class="cls-4" x="76.94" y="26.6" width="68.16" height="86.06" rx="3.7" ry="3.7" transform="rotate(12.15 111.039 69.666)"/><circle class="cls-5" cx="102.27" cy="44.3" r="10.64" transform="rotate(-77.85 102.268 44.296)"/><path class="cls-2" d="M105.94 43.33c-.39 1.82-2.37 3.81-4.19 3.42s-2.81-3-2.41-4.84a3.38 3.38 0 1 1 6.61 1.42zM106.76 54.06c-.75 3.48-13.34.77-12.59-2.71S98 47.24 101.48 48s6.03 2.59 5.28 6.06z"/><circle class="cls-4" cx="102.27" cy="44.3" r="10.64" transform="rotate(-77.85 102.268 44.296)"/><circle class="cls-6" cx="120.11" cy="55.97" r="1.85" transform="rotate(-77.85 120.102 55.968)"/><circle class="cls-6" cx="127.35" cy="57.52" r="1.85" transform="rotate(-77.85 127.342 57.529)"/><circle class="cls-6" cx="134.58" cy="59.08" r="1.85" transform="rotate(-77.85 134.575 59.085)"/><path class="cls-7" d="M107.06 63.09l27.99 6.03M83.93 78.94l46.83 10.08M82.95 83.46l32.51 7"/><path class="cls-8" d="M98.8 61.32l-10.33-2.23M95.49 76.69l-10.33-2.22"/><path class="cls-7" d="M80.81 93.41l46.84 10.09"/><path class="cls-8" d="M92.37 91.17l-10.33-2.23"/><path class="cls-7" transform="rotate(12.15 130.513 45.5)" d="M120 40h21v11h-21z"/><rect class="cls-2" x="21.12" y="35.45" width="68.16" height="86.06" rx="3.7" ry="3.7" transform="rotate(-16.29 55.184 78.487)"/><rect class="cls-4" x="21.12" y="35.45" width="68.16" height="86.06" rx="3.7" ry="3.7" transform="rotate(-16.29 55.184 78.487)"/><path class="cls-9" transform="rotate(-16.3 35.485 60.605)" d="M25.28 50.38h20.25v20.25H25.28z"/><path class="cls-2" d="M38.21 57.77c.52 1.79-.27 4.48-2.06 5s-3.91-1.32-4.43-3.11a3.38 3.38 0 0 1 6.49-1.9zM44 66.82c1 3.41-11.37 7-12.37 3.61S33.09 65 36.5 64s6.5-.59 7.5 2.82z"/><path class="cls-4" transform="rotate(-16.3 35.485 60.605)" d="M25.28 50.38h20.25v20.25H25.28z"/><path class="cls-7" d="M50.87 45.52l15.99-4.67M52.43 50.85l10.65-3.12M53.98 56.18l13.33-3.9"/><circle class="cls-5" cx="56.69" cy="62.13" r="1.85" transform="rotate(-16.29 56.67 62.122)"/><circle class="cls-5" cx="63.79" cy="60.06" r="1.85" transform="rotate(-16.29 63.778 60.037)"/><circle class="cls-5" cx="70.9" cy="57.98" r="1.85" transform="rotate(-16.29 70.88 57.988)"/><path class="cls-7" d="M48.61 74.62l27.48-8.03M35.81 99.57L81.8 86.13M37.11 104.01l31.92-9.33"/><path class="cls-10" d="M40.49 76.99l-10.14 2.96M44.91 92.09l-10.14 2.96"/><path class="cls-7" d="M39.97 113.78l45.98-13.44"/><path class="cls-10" d="M49.06 106.3l-10.14 2.96"/><rect class="cls-2" x="52.8" y="49.63" width="68.16" height="86.06" rx="3.7" ry="3.7"/><rect class="cls-4" x="52.8" y="49.63" width="68.16" height="86.06" rx="3.7" ry="3.7"/><circle class="cls-6" cx="73" cy="69.74" r="10.64"/><path class="cls-2" d="M76.38 68c0 1.87-1.51 4.22-3.38 4.22s-3.38-2.34-3.38-4.22a3.38 3.38 0 0 1 6.76 0zM79.44 78.34c0 3.56-12.88 3.56-12.88 0s2.88-4.83 6.44-4.83 6.44 1.27 6.44 4.83z"/><circle class="cls-4" cx="73" cy="69.74" r="10.64"/><path class="cls-7" d="M91.97 59.81h16.66M91.97 65.36h11.11M91.97 70.91h13.88"/><circle class="cls-5" cx="92.9" cy="77.39" r="1.85"/><circle class="cls-5" cx="100.3" cy="77.39" r="1.85"/><circle class="cls-5" cx="107.7" cy="77.39" r="1.85"/><path class="cls-7" d="M81.64 87.1h28.63M62.36 107.46h47.91M62.36 112.09h33.25"/><path class="cls-8" d="M73.19 87.1H62.62M73.19 102.83H62.62"/><path class="cls-7" d="M62.36 122.27h47.91"/><path class="cls-8" d="M73.19 117.64H62.62"/><path class="cls-11" d="M105.36 97H78.55L72 91.89H47.79A6.77 6.77 0 0 0 41 98.65l1.74 24.41c.73.44 5 .08 5 .08V98.65h21.93l6.58 5.07h29v29H112v-29a6.68 6.68 0 0 0-6.64-6.72z"/><path class="cls-2" d="M112.46 146.83h-63a5.07 5.07 0 0 1-5.07-5.07V98.65a3.38 3.38 0 0 1 3.38-3.38h23l6.58 5.07h28a3.29 3.29 0 0 1 3.29 3.29V143a3.8 3.8 0 0 0 3.8 3.8"/><path class="cls-12" d="M112.46 146.83h-63a5.07 5.07 0 0 1-5.07-5.07V98.65a3.38 3.38 0 0 1 3.38-3.38h23l6.58 5.07h28a3.29 3.29 0 0 1 3.29 3.29V143a3.8 3.8 0 0 0 3.8 3.8"/><path class="cls-4" d="M112.46 146.83h-63a5.07 5.07 0 0 1-5.07-5.07V98.65a3.38 3.38 0 0 1 3.38-3.38h23l6.58 5.07h28a3.29 3.29 0 0 1 3.29 3.29V143a3.8 3.8 0 0 0 3.8 3.8 3.8 3.8 0 0 0 3.8-3.8v-6.79"/><path class="cls-13" d="M39.92 29.36a6 6 0 0 1-4.41-7.17 1.19 1.19 0 0 0-.88-1.43 1.19 1.19 0 0 0-1.43.88 6 6 0 0 1-7.2 4.41 1.19 1.19 0 0 0-1.43.88 1.19 1.19 0 0 0 .88 1.43 6 6 0 0 1 4.41 7.17 1.19 1.19 0 0 0 .91 1.47 1.19 1.19 0 0 0 1.43-.88 6 6 0 0 1 7.17-4.41 1.19 1.19 0 0 0 1.43-.88 1.19 1.19 0 0 0-.88-1.47zM121 15.15a3.57 3.57 0 0 1-3.57-3.57.71.71 0 0 0-.71-.71.71.71 0 0 0-.71.71 3.57 3.57 0 0 1-3.57 3.57.71.71 0 0 0-.71.71.71.71 0 0 0 .71.71 3.57 3.57 0 0 1 3.56 3.58.71.71 0 0 0 .71.71.71.71 0 0 0 .71-.71 3.57 3.57 0 0 1 3.58-3.57.71.71 0 0 0 .71-.71.71.71 0 0 0-.71-.72zM48 15.15a3.57 3.57 0 0 1-3.57-3.57.71.71 0 0 0-.71-.71.71.71 0 0 0-.71.71 3.57 3.57 0 0 1-3.57 3.57.71.71 0 0 0-.71.71.71.71 0 0 0 .71.71A3.57 3.57 0 0 1 43 20.15a.71.71 0 0 0 .71.71.71.71 0 0 0 .71-.71A3.57 3.57 0 0 1 48 16.58a.71.71 0 0 0 .71-.71.71.71 0 0 0-.71-.72z"/><path id="Combined-Shape" class="cls-2" d="M87.27 120.15c0-5.35-3.79-9-9.42-9H64.63v26.36h8v-8.74l-.41.41h2.69l-.37-.23 4.16 8.32.11.23h9.17l-.36-.62-.22-.39-.58-1-1.82-3.16-.06-.11c-.73-1.3-1.34-2.38-1.77-3.17-.25-.45-.43-.8-.56-1l-.14-.28c0 .14 0 .14-.25.44a8.29 8.29 0 0 0 5.05-8.06zm-14.67-1.89h4.28c1.39 0 2.3.75 2.3 1.85s-.88 1.89-2.3 1.89H72.6z"/><path id="Combined-Shape-2" data-name="Combined-Shape" class="cls-14" d="M87.27 120.15c0-5.35-3.79-9-9.42-9H64.63v26.36h8v-8.74l-.41.41h2.69l-.37-.23 4.16 8.32.11.23h9.17l-.36-.62-.22-.39-.58-1-1.82-3.16-.06-.11c-.73-1.3-1.34-2.38-1.77-3.17-.25-.45-.43-.8-.56-1l-.14-.28c0 .14 0 .14-.25.44a8.29 8.29 0 0 0 5.05-8.06zm-1.57 0a6.71 6.71 0 0 1-4.43 6.69l-.41.15-.46.16.24.43 4.94 8.94.36-.61h-6.43l.37.23-4-8v.19-5.12l-.41.41h1.41c2.26 0 3.88-1.39 3.88-3.46s-1.65-3.42-3.88-3.42h-4.69l.41.41v-4.83l-.41.41h5.66c4.77-.05 7.85 2.94 7.85 7.42zm-19.91-7.47H71v10.89h3.69l-.41-.42V128l.41-.41H71v8.74l.41-.41h-5.62l.41.41v-24.06zm6.82 5.58h4.28c1.39 0 2.3.75 2.3 1.85S78.3 122 76.88 122H72.6z"/></svg>