<svg id="Layer_1" data-name="Layer 1" xmlns="http://www.w3.org/2000/svg" viewBox="0 0 160 160"><defs><style>.cls-1,.cls-5{fill:#2196f3}.cls-1{opacity:.1}.cls-2{fill:#fff}.cls-3,.cls-9{fill:#67bcf4}.cls-3{opacity:.6}.cls-10,.cls-11,.cls-4,.cls-6,.cls-8{fill:none;stroke-linecap:round;stroke-linejoin:round}.cls-10,.cls-4,.cls-6{stroke:#196299}.cls-4,.cls-6,.cls-8{stroke-width:2px}.cls-6{opacity:.2}.cls-7{fill:#f46767}.cls-8{stroke:#f46767}.cls-9{opacity:.4}.cls-10{stroke-width:10px}.cls-11{stroke:#44c1a9;stroke-width:6px}.cls-12{fill:#ffcc3b}</style></defs><title>get_results</title><path class="cls-1" d="M33.65 26.94C57.5 6.59 95.92-1.57 123.5 14.86s32.82 94.36 22.5 120.46-59.6 24.65-91.73 5S-8.91 63.24 33.65 26.94z"/><path class="cls-2" d="M114.5 97h-79l-10 13h99l-10-13z"/><path class="cls-3" d="M114.5 97h-79l-10 13h99l-10-13z"/><path class="cls-4" d="M114.5 97h-79l-10 13h99l-10-13z"/><rect class="cls-2" x="63" y="18" width="60" height="75" rx="3.24" ry="3.24"/><rect class="cls-4" x="63" y="18" width="60" height="75" rx="3.24" ry="3.24"/><circle class="cls-5" cx="81" cy="35.36" r="9.5"/><path class="cls-2" d="M84.5 34.1c0 1.63-1.32 3.7-3 3.7s-3-2.06-3-3.7a3 3 0 0 1 5.91 0zM87.18 43.13c0 3.11-11.27 3.11-11.27 0s2.52-4.23 5.63-4.23 5.64 1.1 5.64 4.23z"/><path class="cls-6" d="M98 27h14M98 32h9M98 37h12"/><circle class="cls-7" cx="98" cy="42.36" r="1.5"/><circle class="cls-7" cx="104" cy="42.36" r="1.5"/><circle class="cls-7" cx="110" cy="42.36" r="1.5"/><path class="cls-6" d="M89 51h25M72 69h42M72 73h29"/><path class="cls-8" d="M81 51h-9M81 65h-9"/><path class="cls-6" d="M72 82h42"/><path class="cls-8" d="M81 78h-9"/><path class="cls-2" d="M101 109V80.24A3.24 3.24 0 0 0 97.76 77H44.24A3.24 3.24 0 0 0 41 80.24V109"/><path class="cls-4" d="M101 109V80.24A3.24 3.24 0 0 0 97.76 77H44.24A3.24 3.24 0 0 0 41 80.24V109"/><path class="cls-2" d="M115 118V89.24a3.24 3.24 0 0 0-3.24-3.24H58.24A3.24 3.24 0 0 0 55 89.24V118"/><path class="cls-6" d="M70 98h35M82 104h23"/><path class="cls-4" d="M115 118V89.24a3.24 3.24 0 0 0-3.24-3.24H58.24A3.24 3.24 0 0 0 55 89.24V118"/><path class="cls-2" d="M95 126V97.24A3.24 3.24 0 0 0 91.76 94H38.24A3.24 3.24 0 0 0 35 97.24V126"/><path class="cls-4" d="M95 126V97.24A3.24 3.24 0 0 0 91.76 94H38.24A3.24 3.24 0 0 0 35 97.24V126"/><path class="cls-2" d="M89 110a14 14 0 0 1-28 0H26v38h99v-38z"/><path class="cls-9" d="M89 110a14 14 0 0 1-28 0H26v38h99v-38z"/><path class="cls-4" d="M89 110a14 14 0 0 1-28 0H26v38h99v-38zM72.64 41.67l-5.74 4.08"/><path class="cls-10" d="M65.87 46.49l-7.51 5.32"/><path class="cls-11" d="M65.87 46.49l-7.51 5.32"/><path class="cls-2" d="M83.15 23l.67.11a12.26 12.26 0 0 1 10 14.09l-.11.67a12.26 12.26 0 0 1-14.09 10l-.67-.11a12.26 12.26 0 0 1-10-14.09l.11-.67a12.26 12.26 0 0 1 14.09-10zM72.5 34.21a8.75 8.75 0 0 0 7.15 10.07l.48.08a8.75 8.75 0 0 0 10.07-7.15l.08-.48a8.75 8.75 0 0 0-7.15-10.07l-.48-.08a8.75 8.75 0 0 0-10.07 7.15z"/><path class="cls-9" d="M83.15 23l.67.11a12.26 12.26 0 0 1 10 14.09l-.11.67a12.26 12.26 0 0 1-14.09 10l-.67-.11a12.26 12.26 0 0 1-10-14.09l.11-.67a12.26 12.26 0 0 1 14.09-10zM72.5 34.21a8.75 8.75 0 0 0 7.15 10.07l.48.08a8.75 8.75 0 0 0 10.07-7.15l.08-.48a8.75 8.75 0 0 0-7.15-10.07l-.48-.08a8.75 8.75 0 0 0-10.07 7.15z"/><rect class="cls-4" x="68.82" y="22.91" width="25.12" height="25.12" rx="12.22" ry="12.22" transform="rotate(-170.37 81.385 35.468)"/><rect class="cls-4" x="72.41" y="26.5" width="17.94" height="17.94" rx="8.73" ry="8.73" transform="rotate(-170.37 81.385 35.468)"/><path class="cls-4" d="M57.13 48.3l4.03 5.68"/><path class="cls-6" d="M48 107h35M62 113h21"/><path class="cls-8" d="M123.5 14.86v-5M127.5 18.86h5M127.5 14.86l3-3"/><path class="cls-12" d="M55.79 17.65a3.57 3.57 0 0 1-3.57-3.57.71.71 0 0 0-.71-.71.71.71 0 0 0-.71.71 3.57 3.57 0 0 1-3.57 3.57.71.71 0 0 0-.71.71.71.71 0 0 0 .71.71 3.57 3.57 0 0 1 3.57 3.57.71.71 0 0 0 .71.71.71.71 0 0 0 .71-.71 3.57 3.57 0 0 1 3.57-3.57.71.71 0 0 0 .71-.71.71.71 0 0 0-.71-.71zM52.21 33.08a6.43 6.43 0 0 1-6.43-6.43 1.29 1.29 0 0 0-1.29-1.29 1.29 1.29 0 0 0-1.29 1.29 6.43 6.43 0 0 1-6.43 6.43 1.29 1.29 0 0 0-1.29 1.29 1.29 1.29 0 0 0 1.29 1.29 6.43 6.43 0 0 1 6.43 6.43 1.29 1.29 0 0 0 1.29 1.29 1.29 1.29 0 0 0 1.29-1.29 6.43 6.43 0 0 1 6.43-6.43 1.29 1.29 0 0 0 1.29-1.29 1.29 1.29 0 0 0-1.29-1.29z"/><path class="cls-7" d="M63 130h24v12H63z"/><path class="cls-4" d="M63 130h24v12H63z"/></svg>