<svg id="Layer_1" data-name="Layer 1" xmlns="http://www.w3.org/2000/svg" viewBox="0 0 160 160"><defs><style>.cls-1,.cls-8{fill:#2196f3}.cls-1{opacity:.1}.cls-2{fill:#fff}.cls-14,.cls-15,.cls-3,.cls-6,.cls-7{fill:#67bcf4}.cls-3{opacity:.4}.cls-10,.cls-12,.cls-13,.cls-4,.cls-9{fill:none;stroke-linecap:round;stroke-linejoin:round;stroke-width:2px}.cls-12,.cls-13,.cls-4,.cls-6,.cls-9{stroke:#196299}.cls-5{fill:#f46767}.cls-6{stroke-miterlimit:10}.cls-11,.cls-14,.cls-6,.cls-9{opacity:.2}.cls-7{opacity:.6}.cls-10{stroke:#f46767}.cls-12{stroke-dasharray:4.4 4.4}.cls-13{stroke-dasharray:5.67 5.67}.cls-16{fill:#44c1a9}.cls-17{fill:#196299}.cls-18{fill:#ffcc3b}</style></defs><title>save_time</title><path class="cls-1" d="M122.81 18.3c26.91 9.27 38.86 21.35 29.9 58.89-7.48 31.35-18.58 65-48.29 77s-84.77-24.55-99.26-48.51 13.9-73.36 48.93-87 56.28-4.68 68.72-.38z"/><rect class="cls-2" x="37.45" y="35.76" width="85.17" height="107.53" rx="4.62" ry="4.62" transform="rotate(2.98 80.044 89.671)"/><rect class="cls-3" x="37.45" y="35.76" width="85.17" height="107.53" rx="4.62" ry="4.62" transform="rotate(2.98 80.044 89.671)"/><rect class="cls-4" x="37.45" y="35.76" width="85.17" height="107.53" rx="4.62" ry="4.62" transform="rotate(2.98 80.044 89.671)"/><path class="cls-2" d="M90.63 81.27l39.34-5.01 14.76 4.91-13.06 8.47-39.33 5.01-1.71-13.38z"/><path class="cls-5" transform="rotate(172.74 111.161 85.451)" d="M91.32 78.71h39.67V92.2H91.32z"/><path class="cls-6" transform="rotate(-7.26 110.566 80.765)" d="M90.72 78.75h39.67v3.97H90.72z"/><path class="cls-7" d="M139.08 84.91l5.54-3.59-6.26-2.08.72 5.67z"/><path class="cls-4" d="M90.63 81.27l39.34-5.01 14.76 4.91-13.06 8.47-39.33 5.01-1.71-13.38zM119.46 81.6l-27.54 3.51M130.48 80.19l-6.29.8"/><rect class="cls-2" x="21.01" y="25.46" width="85.17" height="107.53" rx="4.62" ry="4.62" transform="rotate(-5.59 63.582 79.175)"/><rect class="cls-4" x="21.01" y="25.46" width="85.17" height="107.53" rx="4.62" ry="4.62" transform="rotate(-5.59 63.582 79.175)"/><circle class="cls-8" cx="43.55" cy="52.41" r="13.3" transform="rotate(-5.59 43.54 52.326)"/><path class="cls-2" d="M47.54 49.86c.23 2.32-1.37 5.44-3.69 5.66s-4.49-2.52-4.71-4.84a4.22 4.22 0 0 1 8.41-.82zM52.61 62.32c.43 4.42-15.59 6-16 1.57s3-6.36 7.42-6.79 8.14.8 8.58 5.22z"/><circle class="cls-4" cx="43.55" cy="52.41" r="13.3" transform="rotate(-5.59 43.54 52.326)"/><path class="cls-9" d="M65.93 37.75l20.71-2.02M66.61 44.66l13.81-1.35M67.28 51.56l17.26-1.69"/><circle class="cls-5" cx="69.22" cy="59.5" r="2.31" transform="rotate(-5.59 69.166 59.429)"/><circle class="cls-5" cx="78.43" cy="58.6" r="2.31" transform="rotate(-5.59 78.346 58.543)"/><circle class="cls-5" cx="87.63" cy="57.7" r="2.31" transform="rotate(-5.59 87.526 57.656)"/><path class="cls-9" d="M56.4 72.96l35.61-3.49M57.71 86.33l35.61-3.48M58.27 92.08l24.72-2.41"/><path class="cls-10" d="M45.89 73.98l-13.14 1.29M65.19 79.79l-7.85.77"/><path class="cls-9" transform="rotate(-5.59 40.061 85.726)" d="M36.62 82.3h7v7h-7z"/><path class="cls-9" d="M48.41 93.53l-13.93 1.36"/><path class="cls-9" transform="rotate(-5.59 41.911 104.603)" d="M38.47 101.21h7v7h-7z"/><path class="cls-9" d="M50.26 112.44l-13.93 1.36M50.75 117.42l-13.93 1.36M51.24 122.39l-13.94 1.37"/><g class="cls-11"><path class="cls-4" d="M96.51 115.46l.24 2.48-2.49.25"/><path class="cls-12" d="M89.89 118.61l-24.07 2.36"/><path class="cls-4" d="M63.63 121.18l-2.49.25-.24-2.49"/><path class="cls-13" d="M60.35 113.3l-.83-8.46"/><path class="cls-4" d="M59.24 102.02L59 99.53l2.49-.24"/><path class="cls-12" d="M65.86 98.86l24.07-2.35"/><path class="cls-4" d="M92.12 96.29l2.49-.24.24 2.49"/><path class="cls-13" d="M95.4 104.18l.83 8.46"/></g><path class="cls-14" d="M106.61 129a4.62 4.62 0 0 0 4.15-5.05l-1.69-17.26L50 134.57z"/><path class="cls-2" transform="rotate(14.49 135.19 13.708)" d="M130.97 11.88h8.37v3.66h-8.37z"/><path class="cls-4" transform="rotate(-75.5 134.855 14.094)" d="M132.67 10.03h4.71v8.37h-4.71z"/><path class="cls-4" d="M118.59 18.38l-1.75-3.33M147.88 25.95l3.14-2.06"/><circle class="cls-2" cx="129.32" cy="37.32" r="22.4" transform="rotate(-75.51 129.315 37.316)"/><circle class="cls-15" cx="129.32" cy="37.32" r="22.4" transform="rotate(-75.51 129.315 37.316)"/><circle class="cls-4" cx="129.32" cy="37.32" r="22.4" transform="rotate(-75.51 129.315 37.316)"/><circle class="cls-2" cx="129.32" cy="37.32" r="17.61" transform="rotate(-75.51 129.315 37.316)"/><path class="cls-16" d="M133.73 20.27l-4.41 17.05 17.05 4.41a17.61 17.61 0 0 0-12.64-21.46z"/><circle class="cls-4" cx="129.32" cy="37.32" r="17.61" transform="rotate(-75.51 129.315 37.316)"/><path class="cls-17" d="M130.3 38.14a1.35 1.35 0 1 1-1.3-2.35c.65-.36 11.19-5.54 11.55-4.89s-9.6 6.88-10.25 7.24z"/><path class="cls-4" d="M133.39 20.55l-1.05 4.05M125.79 49.91l-1.04 4.05M112.36 32.94l4.05 1.04M141.72 40.53l4.06 1.04M129.35 10.05l12.74 3.29"/><path class="cls-18" transform="rotate(154.74 94.548 126.743)" d="M53.6 118.83h81.91v15.82H53.6z"/><path class="cls-18" transform="rotate(154.74 94.548 126.743)" d="M53.6 118.83h81.91v15.82H53.6z"/><path class="cls-4" d="M60.89 151.37l-6.75-14.31 74.08-34.95 6.75 14.31-74.08 34.95M116.52 107.63l2.84 6.03M110.02 110.7l1.62 3.41M103.53 113.76l2.84 6.03M97.03 116.83l1.61 3.42M90.53 119.89l2.84 6.03M84.03 122.96l1.61 3.42M77.53 126.03l2.84 6.02M64.54 132.16l2.84 6.02M71.03 129.09l1.62 3.42"/></svg>