<svg id="Layer_1" data-name="Layer 1" xmlns="http://www.w3.org/2000/svg" viewBox="0 0 160 160"><defs><style>.cls-1,.cls-5{fill:#2196f3}.cls-1{opacity:.1}.cls-2{fill:#ffcc3b}.cls-3,.cls-6{fill:none;stroke:#196299;stroke-linecap:round;stroke-linejoin:round;stroke-width:2px}.cls-4{fill:#fff}.cls-6{opacity:.2}.cls-7{fill:#196299}.cls-8{fill:#44c1a9}.cls-9{fill:#67bcf4;opacity:.6}.cls-10{fill:#f46767}</style></defs><title>manage_resumes</title><path class="cls-1" d="M39.34 144.62c-25.53-8-44.64-26.22-33.48-54.38s19.4-61.69 47-73.76S138.78 37 153.06 59.1s-16.66 69.47-49.18 83.25-52.74 5.95-64.54 2.27z"/><path class="cls-2" d="M20.87 74.45a.32.32 0 0 0-.36-.14 18.34 18.34 0 0 0-4.74 2.18.32.32 0 0 0-.13.37q.68 2 1.4 4A13.87 13.87 0 0 0 14.16 84q-2-.56-4.11-1.08a.32.32 0 0 0-.36.15 18.35 18.35 0 0 0-1.83 4.88.32.32 0 0 0 .17.35q1.9.94 3.81 1.84a13.87 13.87 0 0 0 .16 4.27q-1.85 1-3.68 2.15a.32.32 0 0 0-.14.36 18.33 18.33 0 0 0 2.15 4.74.32.32 0 0 0 .37.13q2-.68 4-1.4a13.87 13.87 0 0 0 3.15 3q-.59 2-1.13 4.08a.32.32 0 0 0 .15.36 18.35 18.35 0 0 0 4.87 1.85.32.32 0 0 0 .35-.17q1-1.9 1.89-3.8a13.87 13.87 0 0 0 4.32-.14q1 1.84 2.09 3.69a.32.32 0 0 0 .36.15 18.34 18.34 0 0 0 4.75-2.13.32.32 0 0 0 .13-.37q-.65-2-1.35-4a13.87 13.87 0 0 0 3-3.21q2 .58 4.07 1.13a.32.32 0 0 0 .36-.15 18.35 18.35 0 0 0 1.82-4.88.32.32 0 0 0-.17-.35q-1.9-1-3.81-1.9a13.87 13.87 0 0 0-.16-4.31q1.85-1 3.68-2.09a.32.32 0 0 0 .15-.36A18.33 18.33 0 0 0 41.05 82a.32.32 0 0 0-.36-.13q-2 .65-4 1.35a13.87 13.87 0 0 0-3.16-2.94q.56-2 1.07-4.11a.32.32 0 0 0-.16-.36A18.35 18.35 0 0 0 29.52 74a.32.32 0 0 0-.35.17Q28.22 76 27.32 78a13.87 13.87 0 0 0-4.3.16q-1.02-1.88-2.15-3.71zM32 89a6.92 6.92 0 1 1-9.17-3.44A6.92 6.92 0 0 1 32 89z"/><path class="cls-3" d="M20.87 74.45a.32.32 0 0 0-.36-.14 18.34 18.34 0 0 0-4.74 2.18.32.32 0 0 0-.13.37q.68 2 1.4 4A13.87 13.87 0 0 0 14.16 84q-2-.56-4.11-1.08a.32.32 0 0 0-.36.15 18.35 18.35 0 0 0-1.83 4.88.32.32 0 0 0 .17.35q1.9.94 3.81 1.84a13.87 13.87 0 0 0 .16 4.27q-1.85 1-3.68 2.15a.32.32 0 0 0-.14.36 18.33 18.33 0 0 0 2.15 4.74.32.32 0 0 0 .37.13q2-.68 4-1.4a13.87 13.87 0 0 0 3.15 3q-.59 2-1.13 4.08a.32.32 0 0 0 .15.36 18.35 18.35 0 0 0 4.87 1.85.32.32 0 0 0 .35-.17q1-1.9 1.89-3.8a13.87 13.87 0 0 0 4.32-.14q1 1.84 2.09 3.69a.32.32 0 0 0 .36.15 18.34 18.34 0 0 0 4.75-2.13.32.32 0 0 0 .13-.37q-.65-2-1.35-4a13.87 13.87 0 0 0 3-3.21q2 .58 4.07 1.13a.32.32 0 0 0 .36-.15 18.35 18.35 0 0 0 1.82-4.88.32.32 0 0 0-.17-.35q-1.9-1-3.81-1.9a13.87 13.87 0 0 0-.16-4.31q1.85-1 3.68-2.09a.32.32 0 0 0 .15-.36A18.33 18.33 0 0 0 41.05 82a.32.32 0 0 0-.36-.13q-2 .65-4 1.35a13.87 13.87 0 0 0-3.16-2.94q.56-2 1.07-4.11a.32.32 0 0 0-.16-.36A18.35 18.35 0 0 0 29.52 74a.32.32 0 0 0-.35.17Q28.22 76 27.32 78a13.87 13.87 0 0 0-4.3.16q-1.02-1.88-2.15-3.71zM32 89a6.92 6.92 0 1 1-9.17-3.44A6.92 6.92 0 0 1 32 89z"/><rect class="cls-4" x="23" y="89" width="43" height="55" rx="2.68" ry="2.68"/><rect class="cls-3" x="23" y="89" width="43" height="55" rx="2.68" ry="2.68"/><circle class="cls-5" cx="37" cy="104" r="6"/><path class="cls-4" d="M39.07 102.4c0 1.18-1 2.67-2.13 2.67s-2.13-1.49-2.13-2.67a2.13 2.13 0 1 1 4.26 0zM41 108.91c0 2.24-8.13 2.24-8.13 0s1.82-3 4.06-3 4.07.76 4.07 3z"/><circle class="cls-3" cx="37" cy="104" r="6"/><path class="cls-6" d="M49 100h9M49 105h5M33 119h25M33 124h17M33 129h25M33 134h25"/><circle class="cls-7" cx="49.5" cy="110.5" r="1.5"/><circle class="cls-7" cx="53.5" cy="110.5" r="1.5"/><circle class="cls-7" cx="57.5" cy="110.5" r="1.5"/><rect class="cls-4" x="78" y="10" width="43" height="55" rx="2.68" ry="2.68"/><rect class="cls-3" x="78" y="10" width="43" height="55" rx="2.68" ry="2.68"/><circle class="cls-5" cx="92" cy="25" r="6"/><path class="cls-4" d="M94.07 23.4c0 1.18-1 2.67-2.13 2.67s-2.14-1.49-2.14-2.67a2.13 2.13 0 0 1 4.26 0zM96 29.91c0 2.24-8.13 2.24-8.13 0s1.82-3 4.06-3 4.07.76 4.07 3z"/><circle class="cls-3" cx="92" cy="25" r="6"/><path class="cls-6" d="M104 21h9M104 26h5M88 40h25M88 45h17M88 50h25M88 55h25"/><circle class="cls-8" cx="104.5" cy="31.5" r="1.5"/><circle class="cls-8" cx="108.5" cy="31.5" r="1.5"/><circle class="cls-8" cx="112.5" cy="31.5" r="1.5"/><rect class="cls-4" x="108" y="37" width="43" height="55" rx="2.68" ry="2.68"/><rect class="cls-3" x="108" y="37" width="43" height="55" rx="2.68" ry="2.68"/><circle class="cls-5" cx="122" cy="52" r="6"/><path class="cls-4" d="M124.07 50.4c0 1.18-1 2.67-2.13 2.67s-2.13-1.49-2.13-2.67a2.13 2.13 0 0 1 4.26 0zM126 56.91c0 2.24-8.13 2.24-8.13 0s1.82-3 4.06-3 4.07.76 4.07 3z"/><circle class="cls-3" cx="122" cy="52" r="6"/><path class="cls-6" d="M134 48h9M134 53h5M118 67h25M118 72h17M118 77h25M118 82h25"/><circle class="cls-9" cx="134.5" cy="58.5" r="1.5"/><circle class="cls-9" cx="138.5" cy="58.5" r="1.5"/><circle class="cls-9" cx="142.5" cy="58.5" r="1.5"/><rect class="cls-4" x="101" y="89" width="43" height="55" rx="2.68" ry="2.68"/><rect class="cls-3" x="101" y="89" width="43" height="55" rx="2.68" ry="2.68"/><circle class="cls-5" cx="115" cy="104" r="6"/><path class="cls-4" d="M117.07 102.4c0 1.18-1 2.67-2.13 2.67s-2.13-1.49-2.13-2.67a2.13 2.13 0 1 1 4.26 0zM119 108.91c0 2.24-8.13 2.24-8.13 0s1.82-3 4.06-3 4.07.76 4.07 3z"/><circle class="cls-3" cx="115" cy="104" r="6"/><path class="cls-6" d="M127 100h9M127 105h5M111 119h25M111 124h17M111 129h25M111 134h25"/><circle class="cls-10" cx="127.5" cy="110.5" r="1.5"/><circle class="cls-10" cx="131.5" cy="110.5" r="1.5"/><circle class="cls-10" cx="135.5" cy="110.5" r="1.5"/><path class="cls-8" d="M73.31 53.15l-2.22 16-3.76-3.75s-8.9 3-10.4 15.62c0 0-5.71-11.79 4.26-21.76l-3.89-3.89z"/><path class="cls-3" d="M73.31 53.15l-2.22 16-3.76-3.75s-8.9 3-10.4 15.62c0 0-5.71-11.79 4.26-21.76l-3.89-3.89z"/><path class="cls-4" d="M101.89 80.21L89 90v-5.35s-8.4-4.19-18.4 3.69c0 0 4.3-12.34 18.4-12.34v-5.5z"/><path class="cls-9" d="M101.89 80.21L89 90v-5.35s-8.4-4.19-18.4 3.69c0 0 4.3-12.34 18.4-12.34v-5.5z"/><path class="cls-3" d="M101.89 80.21L89 90v-5.35s-8.4-4.19-18.4 3.69c0 0 4.3-12.34 18.4-12.34v-5.5z"/><path class="cls-10" d="M97.31 116.28l-16-2.22 3.76-3.76s-3-8.9-15.62-10.4c0 0 11.79-5.71 21.76 4.26l3.89-3.89z"/><path class="cls-3" d="M97.31 116.28l-16-2.22 3.76-3.76s-3-8.9-15.62-10.4c0 0 11.79-5.71 21.76 4.26l3.89-3.89z"/></svg>